# xmcd
#
# Track frame offsets: 
#        182
#        13847
#        32095
#        54735
#        70537
#        83957
#        97317
#        113760
#        126372
#        150325
#
# Disc length: 2672 seconds
#
# Revision: 4
# Processed by: cddbd v1.5.2PL0 Copyright (c) Steve Scherf et al.
# Submitted via: ExactAudioCopyFreeDBPlugin 1.0
#
DISCID=800a6e0a
DTITLE=Canned Heat - Boogie With Canned Heat
DYEAR=1968
DGENRE=Blues
TTITLE0=Evil Woman
TTITLE1=My Crime
TTITLE2=On The Road Again
TTITLE3=World In A Jug
TTITLE4=Turpentine Moan
TTITLE5=Whisky Headed Woman No. 2
TTITLE6=Amphetamine Annie
TTITLE7=An Owl Song
TTITLE8=Marie Laveau
TTITLE9=Fried Hockey Boogie
EXTD=YEAR: 1968
EXTT0=
EXTT1=
EXTT2=
EXTT3=
EXTT4=
EXTT5=
EXTT6=
EXTT7=
EXTT8=
EXTT9=
PLAYORDER=
